<svg width="30" height="44" viewBox="0 0 30 44" fill="none" xmlns="http://www.w3.org/2000/svg">
<path fill-rule="evenodd" clip-rule="evenodd" d="M24.5524 30.3911C24.5418 34.6544 24.7893 39.8595 26.5 41L30 41V44H0V41H4.2093C5.72093 39.3509 8.56279 35.496 7.83721 33.2697C7.11163 31.0433 4.31008 30.0745 3 29.8683C5.11628 28.6315 9.71163 25.8485 11.1628 24.6117C12.6139 23.3748 11.7674 21.0042 11.1628 19.9735C6.11509 21.1576 5.4186 14.4076 5.72093 7.6049C6.02325 0.802194 14.186 -2.59916 19.6279 2.34826C23.9814 6.3062 20.2326 13.6861 17.814 16.8813C17.5116 18.0151 17.2093 20.9011 18.4186 23.3748C18.5407 23.6246 18.7102 23.8643 18.9187 24.094L19 24C19.6667 23.5 21.2 22.9 22 24.5C22.1404 24.5 22.3202 24.3817 22.5284 24.2448C23.0616 23.8941 23.7808 23.4211 24.5 24.5C24.632 24.5 24.6246 25.5105 24.5974 27.0349C25.7657 27.4108 26.8698 27.7043 27.6811 27.9199L27.6811 27.92L27.6812 27.92L27.6813 27.92L27.6814 27.92C28.4319 28.1195 28.9317 28.2524 29 28.3222C27.1234 29.026 25.6739 29.7165 24.5524 30.3911ZM22 26C22 27.1667 21.3 30 18.5 32C15.7 34 14 35.1667 13.5 35.5C16.5 35.3333 22.4 33.2 22 26ZM21.5001 34.5311C21.5129 37.0586 23.0835 39.3217 23.9467 40.5656C24.2743 41.0376 24.5 41.3629 24.5 41.5C23.5 41.5 21.4 41.3 21 40.5C20.6415 39.783 21.0645 37.2667 21.3252 35.7156C21.4215 35.1426 21.4957 34.7014 21.5001 34.5311ZM21.5 34.5L21.5001 34.5311C21.5004 34.5195 21.5004 34.5091 21.5 34.5ZM19.0001 35.5C16.8334 36.8333 11.7001 39.7 8.50006 40.5C4.50006 41.5 16.0001 41 19.0001 35.5Z" fill="white"/>
<path d="M13 5.5C19.4 5.9 21.1667 4.5 21 3.5C21.3333 4.33333 22 5.1 22 5.5C19.2 7.5 14.3333 7.66667 11.5 7V5.5H13Z" fill="#F5DB4E"/>
<path d="M7.04236 7V5L5.04236 4C4.94712 4.86538 5.04236 6.21923 5.04236 6.63462C5.54236 7 5.54236 7.36538 7.04236 7Z" fill="#F5DB4E"/>
<path d="M13 5.9467C12.3333 5.9467 11 5.3467 11 2.9467C11 -0.0533047 14.5 4.9467 13 5.9467Z" fill="#F5DB4E"/>
<path d="M5.37366 5.9467C6.04032 5.9467 7.37366 5.3467 7.37366 2.9467C7.37366 -0.0533047 3.87366 4.9467 5.37366 5.9467Z" fill="#F5DB4E"/>
<path d="M17 5.9467C16.3333 5.9467 15 5.3467 15 2.9467C15 -0.0533047 18.5 4.9467 17 5.9467Z" fill="#F5DB4E"/>
<path d="M21 4.9467C20.3333 4.9467 19 4.3467 19 1.9467C19 -1.0533 22.5 3.9467 21 4.9467Z" fill="#F5DB4E"/>
<path d="M16.5277 6C15.6851 6 14 6.6081 14 9.04052C14 12.081 18.4235 7.01351 16.5277 6Z" fill="#F5DB4E"/>
<path d="M5.31487 6C5.87658 6 7 6.6081 7 9.04052C7 12.081 4.05102 7.01351 5.31487 6Z" fill="#F5DB4E"/>
<path d="M20.5277 6C19.6851 6 18 6.6081 18 9.04052C18 12.081 22.4235 7.01351 20.5277 6Z" fill="#F5DB4E"/>
</svg>
