<svg width="43" height="48" viewBox="0 0 43 48" fill="none" xmlns="http://www.w3.org/2000/svg">
<path fill-rule="evenodd" clip-rule="evenodd" d="M9.75543 9.5C0.155425 14.7 -0.577908 5.33333 0.255426 0H20.0001H22.7554H42.5001C43.3334 5.33333 42.6001 14.7 33.0001 9.5V41.5L40.5001 47.5H22.7554H20.0001H2.25543L9.75543 41.5V9.5ZM19.7554 10H22.7554V40H19.7554V10ZM16.7554 10H13.7554V40H16.7554V10ZM5.25537 9C3.32237 9 1.75537 7.433 1.75537 5.5C1.75537 3.567 3.32237 2 5.25537 2C7.18837 2 8.75537 3.567 8.75537 5.5C8.75537 7.433 7.18837 9 5.25537 9ZM41 5.5C41 7.433 39.433 9 37.5 9C35.567 9 34 7.433 34 5.5C34 3.567 35.567 2 37.5 2C39.433 2 41 3.567 41 5.5ZM29 10H26V40H29V10Z" fill="white"/>
</svg>
